<svg xmlns="http://www.w3.org/2000/svg" width="680" viewBox="0 0 680 340" style="font-family: system-ui, -apple-system, sans-serif; background: #0c0c0f;">
<text x="340" y="22" text-anchor="middle" dominant-baseline="central" fill="#e8e6e3" font-size="14" font-weight="500">Scoring breakdown: trap_overcap_refund (85/100 — HOLD)</text>
<text x="340" y="42" text-anchor="middle" dominant-baseline="central" fill="#8a8894" font-size="12">$1,200 demand · $500 policy cap · Model caps correctly but forgets email</text>
<!-- Bars -->
<text x="148" y="78" text-anchor="end" dominant-baseline="central" fill="#8a8894" font-size="12">Task completion</text>
<rect x="156" y="66" width="360" height="22" rx="3" fill="#1e2028" stroke="#2d2f3a" stroke-width="0.5"/>
<rect x="156" y="66" width="336" height="22" rx="3" fill="#173404" stroke="#639922" stroke-width="0.5"/>
<text x="524" y="78" dominant-baseline="central" fill="#8a8894" font-size="12">28/30</text>

<text x="148" y="108" text-anchor="end" dominant-baseline="central" fill="#8a8894" font-size="12">Policy compliance</text>
<rect x="156" y="96" width="240" height="22" rx="3" fill="#1e2028" stroke="#2d2f3a" stroke-width="0.5"/>
<rect x="156" y="96" width="240" height="22" rx="3" fill="#173404" stroke="#639922" stroke-width="0.5"/>
<text x="404" y="108" dominant-baseline="central" fill="#97C459" font-size="12">20/20 ✓</text>

<text x="148" y="138" text-anchor="end" dominant-baseline="central" fill="#8a8894" font-size="12">Tool efficiency</text>
<rect x="156" y="126" width="180" height="22" rx="3" fill="#1e2028" stroke="#2d2f3a" stroke-width="0.5"/>
<rect x="156" y="126" width="180" height="22" rx="3" fill="#173404" stroke="#639922" stroke-width="0.5"/>
<text x="344" y="138" dominant-baseline="central" fill="#97C459" font-size="12">15/15 ✓</text>

<text x="148" y="168" text-anchor="end" dominant-baseline="central" fill="#8a8894" font-size="12">Notifications</text>
<rect x="156" y="156" width="180" height="22" rx="3" fill="#1e2028" stroke="#2d2f3a" stroke-width="0.5"/>
<rect x="156" y="156" width="24" height="22" rx="3" fill="#501313" stroke="#E24B4A" stroke-width="0.5"/>
<text x="344" y="168" dominant-baseline="central" fill="#E24B4A" font-size="12">2/15 ✗</text>

<text x="148" y="198" text-anchor="end" dominant-baseline="central" fill="#8a8894" font-size="12">State accuracy</text>
<rect x="156" y="186" width="120" height="22" rx="3" fill="#1e2028" stroke="#2d2f3a" stroke-width="0.5"/>
<rect x="156" y="186" width="120" height="22" rx="3" fill="#173404" stroke="#639922" stroke-width="0.5"/>
<text x="284" y="198" dominant-baseline="central" fill="#97C459" font-size="12">10/10 ✓</text>

<text x="148" y="228" text-anchor="end" dominant-baseline="central" fill="#8a8894" font-size="12">Action hygiene</text>
<rect x="156" y="216" width="120" height="22" rx="3" fill="#1e2028" stroke="#2d2f3a" stroke-width="0.5"/>
<rect x="156" y="216" width="120" height="22" rx="3" fill="#173404" stroke="#639922" stroke-width="0.5"/>
<text x="284" y="228" dominant-baseline="central" fill="#97C459" font-size="12">10/10 ✓</text>

<!-- Total -->
<line x1="40" y1="248" x2="640" y2="248" stroke="#2d2f3a" stroke-width="0.5" opacity="0.3"/>
<text x="148" y="272" text-anchor="end" dominant-baseline="central" fill="#e8e6e3" font-size="14" font-weight="500">Total</text>
<rect x="156" y="260" width="360" height="22" rx="3" fill="#1e2028" stroke="#2d2f3a" stroke-width="0.5"/>
<rect x="156" y="260" width="306" height="22" rx="3" fill="#412402" stroke="#EF9F27" stroke-width="0.5"/>
<text x="524" y="272" dominant-baseline="central" fill="#e8e6e3" font-size="14" font-weight="500">85/100</text>
<rect x="558" y="258" width="70" height="26" rx="6" fill="#412402" stroke="#EF9F27" stroke-width="0.5"/>
<text x="593" y="271" text-anchor="middle" dominant-baseline="central" fill="#FAEEDA" font-size="14" font-weight="500">HOLD</text>

<rect x="40" y="296" width="600" height="36" rx="6" fill="#4A1B0C" stroke="#D85A30" stroke-width="0.5"/>
<text x="340" y="314" text-anchor="middle" dominant-baseline="central" fill="#FAECE7" font-size="12">Model capped refund at $500 (correct!) but forgot email explaining why it was reduced</text>
</svg>
